<?xml version="1.0" encoding="UTF-8"?>
<svg id="Layer_2" xmlns="http://www.w3.org/2000/svg" viewBox="0 0 414.08 262.14">
  <defs>
    <style>
      .cls-1 {
        fill: #efefef;
      }

      .cls-2 {
        fill: none;
        stroke: #efefef;
        stroke-linecap: round;
        stroke-linejoin: round;
        stroke-width: 3px;
      }
    </style>
  </defs>
  <g id="Layer_2-2" data-name="Layer_2">
    <g>
      <g>
        <path class="cls-2" d="M61.34,196.41v-48.14c0-1.4,1.14-2.54,2.54-2.54h68.1"/>
        <line class="cls-2" x1="157.27" y1="259.58" x2="157.27" y2="208.9"/>
        <line class="cls-2" x1="252.11" y1="258.52" x2="252.11" y2="207.84"/>
        <line class="cls-2" x1="302.41" y1="259.58" x2="302.41" y2="208.9"/>
        <line class="cls-2" x1="338.88" y1="208.9" x2="265.94" y2="208.9"/>
        <line class="cls-2" x1="125.07" y1="163" x2="61.34" y2="163"/>
        <line class="cls-2" x1="265.22" y1="166.84" x2="213.37" y2="166.84"/>
        <path class="cls-2" d="M277.1,196.41h-61.19c-1.4,0-2.54-1.14-2.54-2.54v-45.6c0-1.4,1.14-2.54,2.54-2.54h61.19"/>
        <line class="cls-2" x1="344.31" y1="166.84" x2="292.46" y2="166.84"/>
        <path class="cls-2" d="M356.19,196.41h-61.19c-1.4,0-2.54-1.14-2.54-2.54v-45.6c0-1.4,1.14-2.54,2.54-2.54h61.19"/>
        <path class="cls-2" d="M143.5,196.41v-48.44c0-1.28.95-2.37,2.23-2.52,10.55-1.29,54.98-5.93,54.98,7.27,0,14.97-57.2,7.61-57.2,7.61"/>
        <path class="cls-2" d="M85.11,260.64v-48.44c0-1.28.95-2.37,2.23-2.52,10.55-1.29,54.98-5.93,54.98,7.27,0,14.97-57.2,7.61-57.2,7.61"/>
        <line class="cls-2" x1="172.1" y1="162.13" x2="200.7" y2="196.41"/>
        <path class="cls-2" d="M174.9,259.58v-48.44c0-1.28.95-2.37,2.23-2.52,10.55-1.29,54.98-5.93,54.98,7.27,0,14.97-57.2,7.61-57.2,7.61"/>
        <line class="cls-2" x1="203.5" y1="225.3" x2="232.1" y2="259.58"/>
        <path class="cls-2" d="M412.58,209.03s-66.42-10.57-66.42,12.85c0,17.06,63.35-2.1,63.35,23.23s-67.19,9.98-67.19,9.98"/>
        <path class="cls-2" d="M71.76,209.03s-66.42-10.57-66.42,12.85c0,17.06,63.35-2.1,63.35,23.23S1.5,255.09,1.5,255.09"/>
      </g>
      <path class="cls-1" d="M312.96,72.46c-.05-.53-.48-1-1.01-1.12-.16-.04-.33-.04-.49,0-1.5.27-5.23,1.38-10.4,2.91-16.62,4.92-55.54,16.44-61.47,10.52-5.38-5.38,9.89-28.57,20.78-41.92.42-.52.36-1.27-.14-1.72-.5-.44-1.26-.41-1.72.07-.46.48-1.18,1.27-2.1,2.28-6.41,7.03-25.9,28.42-35.38,28.64-1.18.06-2.16-.31-2.9-1.05-8.76-8.76-9.76-51.57-9.85-65.46,0-1.84,0-3.18,0-3.89,0-.28,0-.44,0-.47,0-.33-.13-.65-.36-.89-.47-.47-1.31-.47-1.77,0-.23.24-.36.56-.36.89,0,.03,0,.19,0,.47,0,.71-.01,2.05,0,3.89-.09,13.89-1.09,56.7-9.85,65.46-.74.73-1.64,1.09-2.9,1.05-9.48-.22-28.97-21.61-35.38-28.63-.93-1.02-1.64-1.8-2.1-2.28-.46-.48-1.22-.51-1.72-.07-.5.44-.56,1.2-.14,1.72,10.89,13.35,26.15,36.54,20.78,41.92-5.93,5.91-44.85-5.6-61.47-10.52-5.17-1.53-8.9-2.63-10.39-2.9-.16-.03-.33-.03-.49,0-.53.12-.96.59-1.01,1.12q-.11,1.1,6.96,4.21c13.98,6.14,51.12,22.45,51.12,34.31,0,7.7-26.42,14.24-43.07,16.55-.65.09-1.11.67-1.07,1.32.04.65.58,1.16,1.24,1.16h53.19c.34,0,.67-.14.9-.39.24-.25.36-.58.34-.92-.01-.2-.89-19.68,10.63-31.82,6.16-6.5,14.81-9.79,25.68-9.79s19.52,3.29,25.68,9.79c11.52,12.14,10.65,31.63,10.63,31.82-.02.34.11.67.34.92.23.25.56.39.9.39h52.88c.65,0,1.19-.51,1.24-1.16.05-.65-.42-1.23-1.06-1.32-16.54-2.31-42.77-8.85-42.77-16.55,0-11.86,37.14-28.17,51.12-34.31q7.07-3.11,6.96-4.21Z"/>
    </g>
  </g>
</svg>